<?xml version="1.0" encoding="iso-8859-1"?>
<!-- Uploaded to: SVG Repo, www.svgrepo.com, Generator: SVG Repo Mixer Tools -->
<svg version="1.1" id="Layer_1" xmlns="http://www.w3.org/2000/svg" xmlns:xlink="http://www.w3.org/1999/xlink" 
	 viewBox="0 0 512 512" xml:space="preserve">
<rect x="20.48" style="fill:#263238;" width="471.04" height="471.04"/>
<g>
	<polygon style="fill:#01579B;" points="430.08,163.84 430.08,92.16 450.56,92.16 450.56,40.96 61.44,40.96 61.44,430.08 
		450.56,430.08 450.56,378.88 430.08,378.88 430.08,307.2 450.56,307.2 450.56,163.84 	"/>
	<rect x="450.56" y="307.2" style="fill:#01579B;" width="20.48" height="71.68"/>
	<rect x="450.56" y="92.16" style="fill:#01579B;" width="20.48" height="71.68"/>
</g>
<path style="fill:#F44336;" d="M161.874,141.394L256,235.52H122.88c0,34.068,12.995,68.137,38.994,94.126
	c51.988,51.988,136.274,51.988,188.262,0s51.988-136.274,0-188.262S213.852,89.405,161.874,141.394z"/>
<rect x="281.612" y="59.991" transform="matrix(-0.7071 -0.7071 0.7071 -0.7071 344.6791 552.3376)" style="fill:#263238;" width="10.24" height="289.584"/>
<g>
	<circle style="fill:#FFECB3;" cx="256" cy="235.52" r="71.68"/>
	<rect x="61.44" y="368.64" style="fill:#FFECB3;" width="163.84" height="143.36"/>
</g>
<rect x="112.64" y="430.08" style="fill:#01579B;" width="40.96" height="61.44"/>
<rect x="184.32" y="133.12" style="fill:#FFECB3;" width="143.36" height="378.88"/>
<g>
	<rect x="245.76" y="266.24" style="fill:#01579B;" width="20.48" height="61.44"/>
	<rect x="245.76" y="153.6" style="fill:#01579B;" width="20.48" height="61.44"/>
	<rect x="204.8" y="153.6" style="fill:#01579B;" width="20.48" height="61.44"/>
	<rect x="286.72" y="153.6" style="fill:#01579B;" width="20.48" height="61.44"/>
	<rect x="245.76" y="348.16" style="fill:#01579B;" width="20.48" height="61.44"/>
	<rect x="245.76" y="430.08" style="fill:#01579B;" width="20.48" height="61.44"/>
</g>
<rect x="81.92" y="266.24" style="fill:#FFC107;" width="102.4" height="102.4"/>
<rect x="112.64" y="286.72" style="fill:#263238;" width="40.96" height="61.44"/>
<rect x="286.72" y="327.68" style="fill:#FFC107;" width="163.84" height="184.32"/>
<g>
	<rect x="317.44" y="348.16" style="fill:#263238;" width="40.96" height="61.44"/>
	<rect x="317.44" y="430.08" style="fill:#263238;" width="40.96" height="61.44"/>
	<rect x="378.88" y="348.16" style="fill:#263238;" width="40.96" height="61.44"/>
	<rect x="378.88" y="430.08" style="fill:#263238;" width="40.96" height="61.44"/>
</g>
</svg>